# xmcd CD database file
#
# Track frame offsets:
#	150
#	13962
#	27887
#	43270
#	59327
#	73847
#	90212
#	103955
#	115757
#	131862
#	148107
#	161905
#	172975
#	187877
#
# Disc length: 2720 seconds
#
# Revision: 3
# Processed by: cddbd v1.5.2PL0 Copyright (c) Steve Scherf et al.
# Submitted via: CDex 1.70beta2
#
DISCID=c90a9e0e
DTITLE=Tracy Lawrence - The Best of Tracy Lawrence
DYEAR=1998
DGENRE=Country
TTITLE0=Time Marches On
TTITLE1=If The World Had A Front Porch
TTITLE2=Texas Tornado
TTITLE3=Stars Over Texas
TTITLE4=Her Old Stompin' Ground
TTITLE5=Sticks And Stones
TTITLE6=While You Sleep
TTITLE7=Renegades, Rebels, And Rogues
TTITLE8=I See It Now
TTITLE9=Can't Break It To My Heart
TTITLE10=Alibis
TTITLE11=If The Good Die Young
TTITLE12=Is That A Tear
TTITLE13=Better Man, Better Off
EXTD=YEAR: 1998
EXTT0=
EXTT1=
EXTT2=
EXTT3=
EXTT4=
EXTT5=
EXTT6=
EXTT7=
EXTT8=
EXTT9=
EXTT10=
EXTT11=
EXTT12=
EXTT13=
PLAYORDER=
